<svg xmlns="http://www.w3.org/2000/svg" viewBox="0 0 456.08 170.51"><defs><style>.cls-1{fill:#898078;}.cls-2{fill:#aa9e91;}.cls-3,.cls-4{stroke:#000;stroke-width:4px;}.cls-11,.cls-3,.cls-4{stroke-miterlimit:10;}.cls-4{fill:#fff;}.cls-5{font-size:134.21px;fill:#444;font-family:Borba-DemiBold, Borba;font-weight:700;letter-spacing:-0.08em;}.cls-6{letter-spacing:-0.03em;}.cls-7{letter-spacing:-0.08em;}.cls-8{letter-spacing:-0.14em;}.cls-9{letter-spacing:-0.12em;}.cls-10{letter-spacing:-0.1em;}.cls-11{fill:none;stroke:#d29f7a;stroke-width:7px;}</style></defs><title>logo-1</title><g id="Layer_2" data-name="Layer 2"><g id="Layer_1-2" data-name="Layer 1"><path class="cls-1" d="M68.14,131.53,68,107.7c1.36-.36,1.42-.44,1.42-1.9q0-10.28,0-20.56a3.1,3.1,0,0,0-.11-.95l-.58-.56a3.17,3.17,0,0,0-.89-.09H65.16V79.78L65.1,76q0-10.9,0-21.81A11.91,11.91,0,0,0,52.93,42.06H41.46V37.87c2.28,0,4.5,0,6.71,0a3.2,3.2,0,0,0,1.44-.39c2-1.11,4-2.27,6-3.44.29.49.54,1,.83,1.4a1.05,1.05,0,0,0,1.61.42q4.69-2.69,9.37-5.41a1,1,0,0,0,.43-1.61q-1.33-2.36-2.71-4.68a1,1,0,0,0-1.61-.42q-4.69,2.69-9.37,5.41a1.08,1.08,0,0,0-.42,1.62c.24.45.5.88.76,1.34a2.35,2.35,0,0,1-.25.2l-5.57,3.21a1,1,0,0,1-.47.18H41.47A2.62,2.62,0,0,1,42,33.31C44.54,30.24,47,27.13,49.43,24l5.36-6.76a1.14,1.14,0,0,0-1-2h-38c-.2,0-.39,0-.59,0A1.08,1.08,0,0,0,14.4,17c.14.22.33.43.49.64q6.34,8,12.67,16A2.12,2.12,0,0,1,28,34.82c0,1.58,0,3.17,0,4.76v2.48H16.45A11.88,11.88,0,0,0,4.28,54.31q0,14.2,0,28.4v.93H1.57C.26,83.64,0,83.9,0,85.22q0,10.32,0,20.64c0,1.41.08,1.51,1.48,1.84v.85q0,11.86,0,23.71c0,1.31.29,1.61,1.57,1.61,22,0,41.11.51,63.06.51a3.13,3.13,0,0,0,1.63-.82A4.73,4.73,0,0,0,68.14,131.53ZM63.77,26.08l1.72,3-7.67,4.43-1.72-3ZM45.6,44.27a77.64,77.64,0,0,1,9.34.19,9.34,9.34,0,0,1,8,9.28c.07,9.83,0,19.66,0,29.49,0,.1,0,.19,0,.35H56c4.63-6.8,6.12-14.17,4-22.09S52.87,47.94,45.54,44.36C45.58,44.3,45.59,44.27,45.6,44.27ZM17.84,17.87c-.07-.09-.13-.19-.26-.38H51.75a3.7,3.7,0,0,1-.25.44Q45.63,25.33,39.75,32.7a1.4,1.4,0,0,1-1,.44c-2.73,0-5.46,0-8.19,0a1.24,1.24,0,0,1-.87-.34Q23.76,25.36,17.84,17.87Zm17,38.32a6.53,6.53,0,0,0,4.42,2.52l-.1.25h-9V35.37h8.94V46.11a6.29,6.29,0,0,0-5.42,5A6,6,0,0,0,34.88,56.19Zm.89-3.74a4.14,4.14,0,1,1,4.2,4.1A4.18,4.18,0,0,1,35.77,52.45ZM52.38,82.89l.27.92c-3.12,0-33-.17-36.09-.21-.26,0-.59-.3-.78-.55a23.45,23.45,0,0,1-5.11-14.55,24,24,0,0,1,16.21-23c.34-.12.69-.22,1.11-.35,0,2.24,0,4.41,0,6.58,0,1.43,0,2.68,0,3.86,0,1.44,0,2.88,0,4.32,0,.83.39,1.27,1.18,1.28q5.53,0,11.05,0A1,1,0,0,0,41.37,60,1.58,1.58,0,0,1,42.63,58a9.84,9.84,0,0,0,2.14-1.4l.13-.15a6.67,6.67,0,0,0-3-10c-.71-.25-.49-.7-.5-1.27a21.57,21.57,0,0,1,6.85,3.24c7.28,5.25,10.82,12.39,10.41,21.35a22.89,22.89,0,0,1-5.13,13.36,1.17,1.17,0,0,1-.75.46M6.46,82.79q0-14.3,0-28.61a9.69,9.69,0,0,1,8.12-9.81,17.24,17.24,0,0,1,2.92-.15c2.09,0,4.19,0,6.33.06-7.29,3.66-12.29,9.27-14.42,17.17s-.65,15.29,4,22.12H6.46Zm59.25,48.85H3.7v-24H23.3c0,.6,0,1.2,0,1.8,0,.89.4,1.29,1.31,1.29H47.3c.93,0,1.31-.4,1.32-1.35,0-.56,0-1.11,0-1.72H65.71ZM25.53,108.53v-14H46.38v14Zm41.65-3.13H48.61v-.77q0-5.38,0-10.76c0-1.25-.31-1.57-1.54-1.57H24.83c-1.19,0-1.53.33-1.53,1.51q0,5.38,0,10.76v.83H2.22V85.84h65Z"/><path class="cls-1" d="M43.85,83.2"/><path class="cls-1" d="M29.68,83.59"/><path class="cls-2" d="M68.14,131.53,68,107.7c1.36-.36,1.42-.44,1.42-1.9q0-10.28,0-20.56a3.1,3.1,0,0,0-.11-.95l-.58-.56a3.17,3.17,0,0,0-.89-.09H65.16V79.78L65.1,76q0-10.9,0-21.81A11.91,11.91,0,0,0,52.93,42.06H41.46V37.87c2.28,0,4.5,0,6.71,0a3.2,3.2,0,0,0,1.44-.39c2-1.11,4-2.27,6-3.44.29.49.54,1,.83,1.4a1.05,1.05,0,0,0,1.61.42q4.69-2.69,9.37-5.41a1,1,0,0,0,.43-1.61q-1.33-2.36-2.71-4.68a1,1,0,0,0-1.61-.42q-4.69,2.69-9.37,5.41a1.08,1.08,0,0,0-.42,1.62c.24.45.5.88.76,1.34a2.35,2.35,0,0,1-.25.2l-5.57,3.21a1,1,0,0,1-.47.18H41.47A2.62,2.62,0,0,1,42,33.31C44.54,30.24,47,27.13,49.43,24l5.36-6.76a1.14,1.14,0,0,0-1-2h-38c-.2,0-.39,0-.59,0A1.08,1.08,0,0,0,14.4,17c.14.22.33.43.49.64q6.34,8,12.67,16A2.12,2.12,0,0,1,28,34.82c0,1.58,0,3.17,0,4.76v2.48H16.45A11.88,11.88,0,0,0,4.28,54.31q0,14.2,0,28.4v.93H1.57C.26,83.64,0,83.9,0,85.22q0,10.32,0,20.64c0,1.41.08,1.51,1.48,1.84v.85q0,11.86,0,23.71c0,1.31.29,1.61,1.57,1.61,22,0,41.11.51,63.06.51a3.13,3.13,0,0,0,1.63-.82A4.73,4.73,0,0,0,68.14,131.53ZM63.77,26.08l1.72,3-7.67,4.43-1.72-3ZM45.6,44.27a77.64,77.64,0,0,1,9.34.19,9.34,9.34,0,0,1,8,9.28c.07,9.83,0,19.66,0,29.49,0,.1,0,.19,0,.35H56c4.63-6.8,6.12-14.17,4-22.09S52.87,47.94,45.54,44.36C45.58,44.3,45.59,44.27,45.6,44.27ZM17.84,17.87c-.07-.09-.13-.19-.26-.38H51.75a3.7,3.7,0,0,1-.25.44Q45.63,25.33,39.75,32.7a1.4,1.4,0,0,1-1,.44c-2.73,0-5.46,0-8.19,0a1.24,1.24,0,0,1-.87-.34Q23.76,25.36,17.84,17.87Zm17,38.32a6.53,6.53,0,0,0,4.42,2.52l-.1.25h-9V35.37h8.94V46.11a6.29,6.29,0,0,0-5.42,5A6,6,0,0,0,34.88,56.19Zm.89-3.74a4.14,4.14,0,1,1,4.2,4.1A4.18,4.18,0,0,1,35.77,52.45ZM52.38,82.89l.27.92c-3.12,0-33-.17-36.09-.21-.26,0-.59-.3-.78-.55a23.45,23.45,0,0,1-5.11-14.55,24,24,0,0,1,16.21-23c.34-.12.69-.22,1.11-.35,0,2.24,0,4.41,0,6.58,0,1.43,0,2.68,0,3.86,0,1.44,0,2.88,0,4.32,0,.83.39,1.27,1.18,1.28q5.53,0,11.05,0A1,1,0,0,0,41.37,60,1.58,1.58,0,0,1,42.63,58a9.84,9.84,0,0,0,2.14-1.4l.13-.15a6.67,6.67,0,0,0-3-10c-.71-.25-.49-.7-.5-1.27a21.57,21.57,0,0,1,6.85,3.24c7.28,5.25,10.82,12.39,10.41,21.35a22.89,22.89,0,0,1-5.13,13.36,1.17,1.17,0,0,1-.75.46M6.46,82.79q0-14.3,0-28.61a9.69,9.69,0,0,1,8.12-9.81,17.24,17.24,0,0,1,2.92-.15c2.09,0,4.19,0,6.33.06-7.29,3.66-12.29,9.27-14.42,17.17s-.65,15.29,4,22.12H6.46Zm59.25,48.85H3.7v-24H23.3c0,.6,0,1.2,0,1.8,0,.89.4,1.29,1.31,1.29H47.3c.93,0,1.31-.4,1.32-1.35,0-.56,0-1.11,0-1.72H65.71ZM25.53,108.53v-14H46.38v14Zm41.65-3.13H48.61v-.77q0-5.38,0-10.76c0-1.25-.31-1.57-1.54-1.57H24.83c-1.19,0-1.53.33-1.53,1.51q0,5.38,0,10.76v.83H2.22V85.84h65Z"/><path class="cls-3" d="M43.85,83.2"/><path class="cls-4" d="M29.68,83.59"/><text class="cls-5" transform="translate(85.18 115.08)">R<tspan class="cls-6" x="57.44" y="0">O</tspan><tspan class="cls-7" x="120.25" y="0">A</tspan><tspan class="cls-8" x="176.75" y="0">S</tspan><tspan class="cls-9" x="225.47" y="0">T</tspan><tspan class="cls-10" x="277.28" y="0">R</tspan></text><line class="cls-11" x1="94.75" y1="134.68" x2="456.08" y2="134.68"/></g></g></svg>