<svg xmlns="http://www.w3.org/2000/svg" viewBox="0 0 456.08 122.89"><defs><style>.cls-1{fill:#898078;}.cls-2{fill:#aa9e91;}.cls-3,.cls-4{stroke:#000;stroke-width:4px;}.cls-3,.cls-4,.cls-6{stroke-miterlimit:10;}.cls-4{fill:#fff;}.cls-5{fill:#444;}.cls-6{fill:none;stroke:#d29f7a;stroke-width:7px;}</style></defs><title>logo</title><g id="Layer_2" data-name="Layer 2"><g id="Layer_1-2" data-name="Layer 1"><path class="cls-1" d="M68.14,116.24,68,92.41C69.34,92,69.4,92,69.4,90.5q0-10.28,0-20.56A3.1,3.1,0,0,0,69.3,69l-.58-.56a3.17,3.17,0,0,0-.89-.09H65.16V64.49l-.06-3.74q0-10.9,0-21.81A11.91,11.91,0,0,0,52.93,26.77H41.46V22.58c2.28,0,4.5,0,6.71,0a3.2,3.2,0,0,0,1.44-.39c2-1.11,4-2.27,6-3.44.29.49.54,1,.83,1.4a1.05,1.05,0,0,0,1.61.42q4.69-2.69,9.37-5.41a1,1,0,0,0,.43-1.61q-1.33-2.36-2.71-4.68a1,1,0,0,0-1.61-.42q-4.69,2.69-9.37,5.41a1.08,1.08,0,0,0-.42,1.62c.24.45.5.88.76,1.34a2.35,2.35,0,0,1-.25.2l-5.57,3.21a1,1,0,0,1-.47.18H41.47A2.62,2.62,0,0,1,42,18C44.54,15,47,11.84,49.43,8.74L54.79,2a1.17,1.17,0,0,0,.3-1.33A1.18,1.18,0,0,0,53.81,0h-38c-.2,0-.39,0-.59,0a1.08,1.08,0,0,0-.84,1.71c.14.22.33.43.49.64q6.34,8,12.67,16A2.12,2.12,0,0,1,28,19.53c0,1.58,0,3.17,0,4.76v2.48H16.45A11.88,11.88,0,0,0,4.28,39q0,14.2,0,28.4v.93H1.57C.26,68.35,0,68.61,0,69.93Q0,80.25,0,90.57c0,1.41.08,1.51,1.48,1.84v.85q0,11.86,0,23.71c0,1.31.29,1.61,1.57,1.61,22,0,41.11.51,63.06.51a3.13,3.13,0,0,0,1.63-.82A4.73,4.73,0,0,0,68.14,116.24ZM63.77,10.79l1.72,3-7.67,4.43-1.72-3ZM45.6,29a77.64,77.64,0,0,1,9.34.19,9.34,9.34,0,0,1,8,9.28c.07,9.83,0,19.66,0,29.49,0,.1,0,.19,0,.35H56c4.63-6.8,6.12-14.17,4-22.09S52.87,32.65,45.54,29.07C45.58,29,45.59,29,45.6,29ZM17.84,2.58c-.07-.09-.13-.19-.26-.38H51.75a3.7,3.7,0,0,1-.25.44Q45.63,10,39.75,17.41a1.4,1.4,0,0,1-1,.44c-2.73,0-5.46,0-8.19,0a1.24,1.24,0,0,1-.87-.34Q23.76,10.07,17.84,2.58Zm17,38.32a6.53,6.53,0,0,0,4.42,2.52l-.1.25h-9V20.08h8.94V30.82a6.29,6.29,0,0,0-5.42,5A6,6,0,0,0,34.88,40.9Zm.89-3.74a4.14,4.14,0,1,1,4.2,4.1A4.18,4.18,0,0,1,35.77,37.16ZM52.38,67.6l.27.92c-3.12,0-33-.17-36.09-.21-.26,0-.59-.3-.78-.55a23.45,23.45,0,0,1-5.11-14.55,24,24,0,0,1,16.21-23c.34-.12.69-.22,1.11-.35,0,2.24,0,4.41,0,6.58,0,1.43,0,2.68,0,3.86,0,1.44,0,2.88,0,4.32,0,.83.39,1.27,1.18,1.28q5.53,0,11.05,0a1,1,0,0,0,1.13-1.23,1.58,1.58,0,0,1,1.26-1.94,9.84,9.84,0,0,0,2.14-1.4l.13-.15a6.67,6.67,0,0,0-3-10c-.71-.25-.49-.7-.5-1.27a21.57,21.57,0,0,1,6.85,3.24c7.28,5.25,10.82,12.39,10.41,21.35a22.89,22.89,0,0,1-5.13,13.36,1.17,1.17,0,0,1-.75.46M6.46,67.5q0-14.3,0-28.61a9.69,9.69,0,0,1,8.12-9.81,17.24,17.24,0,0,1,2.92-.15c2.09,0,4.19,0,6.33.06-7.29,3.66-12.29,9.27-14.42,17.17s-.65,15.29,4,22.12H6.46Zm59.25,48.85H3.7v-24H23.3c0,.6,0,1.2,0,1.8,0,.89.4,1.29,1.31,1.29H47.3c.93,0,1.31-.4,1.32-1.35,0-.56,0-1.11,0-1.72H65.71ZM25.53,93.24v-14H46.38v14Zm41.65-3.13H48.61v-.77q0-5.38,0-10.76c0-1.25-.31-1.57-1.54-1.57H24.83c-1.19,0-1.53.33-1.53,1.51q0,5.38,0,10.76v.83H2.22V70.55h65Z"/><path class="cls-1" d="M43.85,67.91"/><path class="cls-1" d="M29.68,68.3"/><path class="cls-2" d="M68.14,116.24,68,92.41C69.34,92,69.4,92,69.4,90.5q0-10.28,0-20.56A3.1,3.1,0,0,0,69.3,69l-.58-.56a3.17,3.17,0,0,0-.89-.09H65.16V64.49l-.06-3.74q0-10.9,0-21.81A11.91,11.91,0,0,0,52.93,26.77H41.46V22.58c2.28,0,4.5,0,6.71,0a3.2,3.2,0,0,0,1.44-.39c2-1.11,4-2.27,6-3.44.29.49.54,1,.83,1.4a1.05,1.05,0,0,0,1.61.42q4.69-2.69,9.37-5.41a1,1,0,0,0,.43-1.61q-1.33-2.36-2.71-4.68a1,1,0,0,0-1.61-.42q-4.69,2.69-9.37,5.41a1.08,1.08,0,0,0-.42,1.62c.24.45.5.88.76,1.34a2.35,2.35,0,0,1-.25.2l-5.57,3.21a1,1,0,0,1-.47.18H41.47A2.62,2.62,0,0,1,42,18C44.54,15,47,11.84,49.43,8.74L54.79,2a1.17,1.17,0,0,0,.3-1.33A1.18,1.18,0,0,0,53.81,0h-38c-.2,0-.39,0-.59,0a1.08,1.08,0,0,0-.84,1.71c.14.22.33.43.49.64q6.34,8,12.67,16A2.12,2.12,0,0,1,28,19.53c0,1.58,0,3.17,0,4.76v2.48H16.45A11.88,11.88,0,0,0,4.28,39q0,14.2,0,28.4v.93H1.57C.26,68.35,0,68.61,0,69.93Q0,80.25,0,90.57c0,1.41.08,1.51,1.48,1.84v.85q0,11.86,0,23.71c0,1.31.29,1.61,1.57,1.61,22,0,41.11.51,63.06.51a3.13,3.13,0,0,0,1.63-.82A4.73,4.73,0,0,0,68.14,116.24ZM63.77,10.79l1.72,3-7.67,4.43-1.72-3ZM45.6,29a77.64,77.64,0,0,1,9.34.19,9.34,9.34,0,0,1,8,9.28c.07,9.83,0,19.66,0,29.49,0,.1,0,.19,0,.35H56c4.63-6.8,6.12-14.17,4-22.09S52.87,32.65,45.54,29.07C45.58,29,45.59,29,45.6,29ZM17.84,2.58c-.07-.09-.13-.19-.26-.38H51.75a3.7,3.7,0,0,1-.25.44Q45.63,10,39.75,17.41a1.4,1.4,0,0,1-1,.44c-2.73,0-5.46,0-8.19,0a1.24,1.24,0,0,1-.87-.34Q23.76,10.07,17.84,2.58Zm17,38.32a6.53,6.53,0,0,0,4.42,2.52l-.1.25h-9V20.08h8.94V30.82a6.29,6.29,0,0,0-5.42,5A6,6,0,0,0,34.88,40.9Zm.89-3.74a4.14,4.14,0,1,1,4.2,4.1A4.18,4.18,0,0,1,35.77,37.16ZM52.38,67.6l.27.92c-3.12,0-33-.17-36.09-.21-.26,0-.59-.3-.78-.55a23.45,23.45,0,0,1-5.11-14.55,24,24,0,0,1,16.21-23c.34-.12.69-.22,1.11-.35,0,2.24,0,4.41,0,6.58,0,1.43,0,2.68,0,3.86,0,1.44,0,2.88,0,4.32,0,.83.39,1.27,1.18,1.28q5.53,0,11.05,0a1,1,0,0,0,1.13-1.23,1.58,1.58,0,0,1,1.26-1.94,9.84,9.84,0,0,0,2.14-1.4l.13-.15a6.67,6.67,0,0,0-3-10c-.71-.25-.49-.7-.5-1.27a21.57,21.57,0,0,1,6.85,3.24c7.28,5.25,10.82,12.39,10.41,21.35a22.89,22.89,0,0,1-5.13,13.36,1.17,1.17,0,0,1-.75.46M6.46,67.5q0-14.3,0-28.61a9.69,9.69,0,0,1,8.12-9.81,17.24,17.24,0,0,1,2.92-.15c2.09,0,4.19,0,6.33.06-7.29,3.66-12.29,9.27-14.42,17.17s-.65,15.29,4,22.12H6.46Zm59.25,48.85H3.7v-24H23.3c0,.6,0,1.2,0,1.8,0,.89.4,1.29,1.31,1.29H47.3c.93,0,1.31-.4,1.32-1.35,0-.56,0-1.11,0-1.72H65.71ZM25.53,93.24v-14H46.38v14Zm41.65-3.13H48.61v-.77q0-5.38,0-10.76c0-1.25-.31-1.57-1.54-1.57H24.83c-1.19,0-1.53.33-1.53,1.51q0,5.38,0,10.76v.83H2.22V70.55h65Z"/><path class="cls-3" d="M43.85,67.91"/><path class="cls-4" d="M29.68,68.3"/><path class="cls-5" d="M127.59,68.66c.94,2.15,10.47,22.28,12.75,26.17,0,0,2.15,4.16-1.34,5.77-3.89,1.88-5.77-2.82-5.77-2.82-.81-1.61-10.47-22.28-12.88-27.65H102V97.38A3.76,3.76,0,0,1,98.2,101a3.53,3.53,0,0,1-3.62-3.62V8.26a3.17,3.17,0,0,1,3.49-3.09h20.67c23.35,0,23.49,22.15,23.49,22.15v20.4C142.22,50.81,140.61,64.36,127.59,68.66Zm-8.59-6c15.57,0,15.84-14.9,15.84-14.9V27.32s-.13-14.9-15.84-14.9H102v50.2Z"/><path class="cls-5" d="M152,26s-.27-22.15,24.16-22.15S200.74,26,200.74,26V79.66c0,.13,0,22.28-24.56,22.28C152,101.94,152,79.8,152,79.66ZM193.35,79.8V26c0,.13,0-14.76-17.18-14.76C159.26,11.21,159.26,26,159.26,26V79.66s0,14.9,16.91,14.9C193.35,94.56,193.35,79.8,193.35,79.8Z"/><path class="cls-5" d="M263.68,97.51a3.39,3.39,0,0,1-3.49,3.49,3.91,3.91,0,0,1-3.89-3.49V69.06H222.21V97.51a3.68,3.68,0,0,1-3.62,3.49,3.64,3.64,0,0,1-3.76-3.49V25.84s0-22,24.29-22c24.56,0,24.56,22,24.56,22ZM256.3,61.68v-36s0-14.5-17.18-14.5c-16.91,0-16.91,14.63-16.91,14.63V61.68Z"/><path class="cls-5" d="M322.06,79.26v1.07A22.07,22.07,0,0,1,313.74,96a26.7,26.7,0,0,1-16.64,5.77h-.27a26.46,26.46,0,0,1-17.18-5.91c-5.1-4.16-8.72-11.41-9-20A3.34,3.34,0,0,1,274,72.28a3.54,3.54,0,0,1,3.89,3.35C279,91.07,290,94.83,296.83,94.83H297c8.72,0,17.85-6.44,17.85-16.78.13-13.82-7.92-19.33-20.8-24.43-11.68-5.23-15.84-8.46-19.46-13.29-2.82-4.29-3.36-9.13-3.36-14A22.76,22.76,0,0,1,273.88,16a20.51,20.51,0,0,1,5.91-6.71,28,28,0,0,1,16.91-5.5,25.12,25.12,0,0,1,16.91,6c4.7,4.16,7,9.8,7,16.64a3.76,3.76,0,0,1-3.76,3.62,3.49,3.49,0,0,1-3.49-3.49c0-10.07-7.11-15.84-16.64-15.7h-.13c-7.65,0-18,4.83-18.12,15.7,0,5.77,1.07,13.69,18,20.13a80.23,80.23,0,0,1,15.43,8.05,23.5,23.5,0,0,1,7.65,9A29.53,29.53,0,0,1,322.06,79.26Z"/><path class="cls-5" d="M366.75,8.8a3.69,3.69,0,0,1-3.89,3.62H347v85a3.44,3.44,0,0,1-3.49,3.62,3.59,3.59,0,0,1-3.76-3.49V12.42H323.67a3.65,3.65,0,0,1-3.76-3.62,3.6,3.6,0,0,1,3.89-3.62h39.06C364.07,5.17,366.75,5.71,366.75,8.8Z"/><path class="cls-5" d="M404.87,68.66c.94,2.15,10.47,22.28,12.75,26.17,0,0,2.15,4.16-1.34,5.77-3.89,1.88-5.77-2.82-5.77-2.82C409.7,96.17,400,75.5,397.62,70.13H379.23V97.38a3.76,3.76,0,0,1-3.76,3.62,3.53,3.53,0,0,1-3.62-3.62V8.26a3.16,3.16,0,0,1,3.49-3.09H396c23.35,0,23.49,22.15,23.49,22.15v20.4C419.5,50.81,417.89,64.36,404.87,68.66Zm-8.59-6c15.57,0,15.84-14.9,15.84-14.9V27.32s-.13-14.9-15.84-14.9h-17v50.2Z"/><line class="cls-6" x1="94.75" y1="119.39" x2="456.08" y2="119.39"/></g></g></svg>